# Exported from Wings 3D 2.1.7
mtllib primitive.mtl
o Cylinder2
#32 vertices, 30 faces
v 1.00000000 1.00000000 0.0000000e+0
v 0.92387953 1.00000000 0.38268343
v 0.70710678 1.00000000 0.70710678
v 0.38268343 1.00000000 0.92387953
v 6.1232340e-17 1.00000000 1.00000000
v -0.38268343 1.00000000 0.92387953
v -0.70710678 1.00000000 0.70710678
v -0.92387953 1.00000000 0.38268343
v -1.00000000 1.00000000 1.2246468e-16
v -0.92387953 1.00000000 -0.38268343
v -0.70710678 1.00000000 -0.70710678
v -0.38268343 1.00000000 -0.92387953
v -1.8369702e-16 1.00000000 -1.00000000
v 0.38268343 1.00000000 -0.92387953
v 0.70710678 1.00000000 -0.70710678
v 0.92387953 1.00000000 -0.38268343
v 1.00000000 -1.00000000 0.0000000e+0
v 0.92387953 -1.00000000 0.38268343
v 0.70710678 -1.00000000 0.70710678
v 0.38268343 -1.00000000 0.92387953
v 6.1232340e-17 -1.00000000 1.00000000
v -0.38268343 -1.00000000 0.92387953
v -0.70710678 -1.00000000 0.70710678
v -0.92387953 -1.00000000 0.38268343
v -1.00000000 -1.00000000 1.2246468e-16
v -0.92387953 -1.00000000 -0.38268343
v -0.70710678 -1.00000000 -0.70710678
v -0.38268343 -1.00000000 -0.92387953
v -1.8369702e-16 -1.00000000 -1.00000000
v 0.38268343 -1.00000000 -0.92387953
v 0.70710678 -1.00000000 -0.70710678
v 0.92387953 -1.00000000 -0.38268343
vn 0.0000000e+0 1.00000000 0.0000000e+0
vn 0.98078528 0.0000000e+0 -0.19509032
vn 0.98078528 0.0000000e+0 0.19509032
vn 0.0000000e+0 1.00000000 0.0000000e+0
vn 0.83146961 0.0000000e+0 0.55557023
vn 0.98078528 0.0000000e+0 0.19509032
vn 0.0000000e+0 1.00000000 0.0000000e+0
vn 0.55557023 0.0000000e+0 0.83146961
vn 0.83146961 0.0000000e+0 0.55557023
vn 0.0000000e+0 1.00000000 0.0000000e+0
vn 0.19509032 0.0000000e+0 0.98078528
vn 0.55557023 0.0000000e+0 0.83146961
vn 0.0000000e+0 1.00000000 0.0000000e+0
vn 0.0000000e+0 1.00000000 0.0000000e+0
vn -0.19509032 0.0000000e+0 0.98078528
vn 0.19509032 0.0000000e+0 0.98078528
vn 0.0000000e+0 1.00000000 0.0000000e+0
vn 0.0000000e+0 1.00000000 0.0000000e+0
vn -0.55557023 0.0000000e+0 0.83146961
vn -0.19509032 0.0000000e+0 0.98078528
vn 0.0000000e+0 1.00000000 0.0000000e+0
vn 0.0000000e+0 1.00000000 0.0000000e+0
vn -0.83146961 0.0000000e+0 0.55557023
vn -0.55557023 0.0000000e+0 0.83146961
vn 0.0000000e+0 1.00000000 0.0000000e+0
vn 0.0000000e+0 1.00000000 0.0000000e+0
vn -0.98078528 0.0000000e+0 0.19509032
vn -0.83146961 0.0000000e+0 0.55557023
vn 0.0000000e+0 1.00000000 0.0000000e+0
vn 0.0000000e+0 1.00000000 0.0000000e+0
vn -0.98078528 0.0000000e+0 -0.19509032
vn -0.98078528 0.0000000e+0 0.19509032
vn 0.0000000e+0 1.00000000 0.0000000e+0
vn -0.83146961 0.0000000e+0 -0.55557023
vn -0.98078528 0.0000000e+0 -0.19509032
vn 0.0000000e+0 1.00000000 0.0000000e+0
vn -0.55557023 0.0000000e+0 -0.83146961
vn -0.83146961 0.0000000e+0 -0.55557023
vn 0.0000000e+0 1.00000000 0.0000000e+0
vn 0.0000000e+0 1.00000000 0.0000000e+0
vn -0.19509032 0.0000000e+0 -0.98078528
vn -0.55557023 0.0000000e+0 -0.83146961
vn 0.0000000e+0 1.00000000 0.0000000e+0
vn 0.0000000e+0 1.00000000 0.0000000e+0
vn 0.19509032 0.0000000e+0 -0.98078528
vn -0.19509032 0.0000000e+0 -0.98078528
vn 0.0000000e+0 1.00000000 0.0000000e+0
vn 0.0000000e+0 1.00000000 0.0000000e+0
vn 0.55557023 0.0000000e+0 -0.83146961
vn 0.19509032 0.0000000e+0 -0.98078528
vn 0.0000000e+0 1.00000000 0.0000000e+0
vn 0.0000000e+0 1.00000000 0.0000000e+0
vn 0.83146961 0.0000000e+0 -0.55557023
vn 0.55557023 0.0000000e+0 -0.83146961
vn 0.0000000e+0 1.00000000 0.0000000e+0
vn 0.0000000e+0 1.00000000 0.0000000e+0
vn 0.0000000e+0 1.00000000 0.0000000e+0
vn 0.98078528 0.0000000e+0 -0.19509032
vn 0.83146961 0.0000000e+0 -0.55557023
vn 0.0000000e+0 1.00000000 0.0000000e+0
vn 0.98078528 0.0000000e+0 -0.19509032
vn 0.98078528 0.0000000e+0 0.19509032
vn 0.0000000e+0 -1.00000000 0.0000000e+0
vn 0.83146961 0.0000000e+0 0.55557023
vn 0.98078528 0.0000000e+0 0.19509032
vn 0.0000000e+0 -1.00000000 0.0000000e+0
vn 0.0000000e+0 -1.00000000 0.0000000e+0
vn 0.55557023 0.0000000e+0 0.83146961
vn 0.83146961 0.0000000e+0 0.55557023
vn 0.0000000e+0 -1.00000000 0.0000000e+0
vn 0.0000000e+0 -1.00000000 0.0000000e+0
vn 0.19509032 0.0000000e+0 0.98078528
vn 0.55557023 0.0000000e+0 0.83146961
vn 0.0000000e+0 -1.00000000 0.0000000e+0
vn 0.0000000e+0 -1.00000000 0.0000000e+0
vn -0.19509032 0.0000000e+0 0.98078528
vn 0.19509032 0.0000000e+0 0.98078528
vn 0.0000000e+0 -1.00000000 0.0000000e+0
vn 0.0000000e+0 -1.00000000 0.0000000e+0
vn -0.55557023 0.0000000e+0 0.83146961
vn -0.19509032 0.0000000e+0 0.98078528
vn 0.0000000e+0 -1.00000000 0.0000000e+0
vn 0.0000000e+0 -1.00000000 0.0000000e+0
vn 0.0000000e+0 -1.00000000 0.0000000e+0
vn -0.83146961 0.0000000e+0 0.55557023
vn -0.55557023 0.0000000e+0 0.83146961
vn 0.0000000e+0 -1.00000000 0.0000000e+0
vn 0.0000000e+0 -1.00000000 0.0000000e+0
vn -0.98078528 0.0000000e+0 0.19509032
vn -0.83146961 0.0000000e+0 0.55557023
vn 0.0000000e+0 -1.00000000 0.0000000e+0
vn -0.98078528 0.0000000e+0 -0.19509032
vn -0.98078528 0.0000000e+0 0.19509032
vn 0.0000000e+0 -1.00000000 0.0000000e+0
vn -0.83146961 0.0000000e+0 -0.55557023
vn -0.98078528 0.0000000e+0 -0.19509032
vn 0.0000000e+0 -1.00000000 0.0000000e+0
vn -0.55557023 0.0000000e+0 -0.83146961
vn -0.83146961 0.0000000e+0 -0.55557023
vn 0.0000000e+0 -1.00000000 0.0000000e+0
vn 0.0000000e+0 -1.00000000 0.0000000e+0
vn -0.19509032 0.0000000e+0 -0.98078528
vn -0.55557023 0.0000000e+0 -0.83146961
vn 0.0000000e+0 -1.00000000 0.0000000e+0
vn 0.0000000e+0 -1.00000000 0.0000000e+0
vn 0.19509032 0.0000000e+0 -0.98078528
vn -0.19509032 0.0000000e+0 -0.98078528
vn 0.0000000e+0 -1.00000000 0.0000000e+0
vn 0.0000000e+0 -1.00000000 0.0000000e+0
vn 0.55557023 0.0000000e+0 -0.83146961
vn 0.19509032 0.0000000e+0 -0.98078528
vn 0.0000000e+0 -1.00000000 0.0000000e+0
vn 0.0000000e+0 -1.00000000 0.0000000e+0
vn 0.83146961 0.0000000e+0 -0.55557023
vn 0.55557023 0.0000000e+0 -0.83146961
vn 0.0000000e+0 -1.00000000 0.0000000e+0
vn 0.0000000e+0 -1.00000000 0.0000000e+0
vn 0.98078528 0.0000000e+0 -0.19509032
vn 0.83146961 0.0000000e+0 -0.55557023
vn 0.0000000e+0 -1.00000000 0.0000000e+0
g Cylinder2_default
usemtl default
s 1
f 1//2 17//61 32//118 16//58
f 3//9 19//69 18//64 2//5
f 5//16 21//77 20//72 4//11
f 7//24 23//86 22//80 6//19
f 9//32 25//93 24//89 8//27
f 12//42 28//103 27//98 11//37
f 14//50 30//111 29//106 13//45
s 2
f 2//6 18//65 17//62 1//3
f 4//12 20//73 19//68 3//8
f 6//20 22//81 21//76 5//15
f 8//28 24//90 23//85 7//23
f 10//35 26//96 25//92 9//31
f 13//46 29//107 28//102 12//41
f 15//54 31//115 30//110 14//49
s 3
f 11//38 27//99 26//95 10//34
f 16//59 32//119 31//114 15//53
s 4
f 1//1 16//57 3//7 2//4
f 3//10 16//60 15//56 4//14
f 4//13 15//55 14//52 5//18
f 5//17 14//51 13//47 6//21
f 6//22 13//48 12//43 7//25
f 7//26 12//44 11//39 8//29
f 8//30 11//40 10//36 9//33
f 18//67 31//117 32//120 17//63
f 19//71 30//113 31//116 18//66
f 20//75 29//109 30//112 19//70
f 21//78 28//104 29//108 20//74
f 22//82 27//100 28//105 21//79
f 23//87 26//97 27//101 22//83
f 24//88 25//91 26//94 23//84
